<svg width="42" height="42" viewBox="0 0 42 42" fill="none" xmlns="http://www.w3.org/2000/svg">
<rect width="42" height="42" fill="#E5E5E5"/>
<g id="Desktop" clip-path="url(#clip0_0_3517)">
<rect width="1579" height="7088.55" transform="translate(-1101 -6868)" fill="#181818"/>
<g id="light FOOTER 4">
<rect width="1579" height="457" transform="translate(-1101 -236.453)" fill="#181818"/>
<g id="content" clip-path="url(#clip1_0_3517)">
<g id="row" clip-path="url(#clip2_0_3517)">
<g id="social media" clip-path="url(#clip3_0_3517)">
<g id="ant-design:facebook-filled">
<path id="Vector" d="M35.7103 5.02979H6.25117C5.54271 5.02979 4.97034 5.60216 4.97034 6.31062V35.7697C4.97034 36.4782 5.54271 37.0506 6.25117 37.0506H35.7103C36.4187 37.0506 36.9911 36.4782 36.9911 35.7697V6.31062C36.9911 5.60216 36.4187 5.02979 35.7103 5.02979ZM32.0119 14.3758H29.4542C27.4489 14.3758 27.0607 15.3285 27.0607 16.7294V19.8154H31.8478L31.2234 24.6465H27.0607V37.0506H22.0694V24.6505H17.8947V19.8154H22.0694V16.2531C22.0694 12.1184 24.5951 9.86492 28.2855 9.86492C30.0546 9.86492 31.5716 9.99701 32.0159 10.057V14.3758H32.0119Z" fill="white"/>
</g>
</g>
</g>
</g>
</g>
</g>
<defs>
<clipPath id="clip0_0_3517">
<rect width="1579" height="7088.55" fill="white" transform="translate(-1101 -6868)"/>
</clipPath>
<clipPath id="clip1_0_3517">
<rect width="930" height="243" fill="white" transform="translate(-776.5 -129.453)"/>
</clipPath>
<clipPath id="clip2_0_3517">
<rect width="218" height="190.987" fill="white" transform="translate(-64.5 -129.453)"/>
</clipPath>
<clipPath id="clip3_0_3517">
<rect width="170.96" height="80.9866" fill="white" transform="translate(-64.5 -19.4531)"/>
</clipPath>
</defs>
</svg>
