<svg width="47" height="47" viewBox="0 0 47 47" fill="none" xmlns="http://www.w3.org/2000/svg">
<rect width="47" height="47" fill="#E5E5E5"/>
<g id="Desktop" clip-path="url(#clip0_0_3517)">
<rect width="1579" height="7088.55" transform="translate(-1036 -6738)" fill="#181818"/>
<g id="light FOOTER 4">
<rect width="1579" height="457" transform="translate(-1036 -106.453)" fill="#181818"/>
<g id="content" clip-path="url(#clip1_0_3517)">
<g id="row" clip-path="url(#clip2_0_3517)">
<g id="block" clip-path="url(#clip3_0_3517)">
<g id="bx:bx-map">
<path id="Vector" d="M23.5 27.3802C27.7282 27.3802 31.1667 23.9417 31.1667 19.7135C31.1667 15.4854 27.7282 12.0469 23.5 12.0469C19.2719 12.0469 15.8334 15.4854 15.8334 19.7135C15.8334 23.9417 19.2719 27.3802 23.5 27.3802ZM23.5 15.8802C25.6141 15.8802 27.3334 17.5995 27.3334 19.7135C27.3334 21.8276 25.6141 23.5469 23.5 23.5469C21.386 23.5469 19.6667 21.8276 19.6667 19.7135C19.6667 17.5995 21.386 15.8802 23.5 15.8802Z" fill="white"/>
<path id="Vector_2" d="M22.3885 42.3572C22.7129 42.5889 23.1015 42.7134 23.5001 42.7134C23.8987 42.7134 24.2874 42.5889 24.6118 42.3572C25.1945 41.9451 38.889 32.057 38.8335 19.7137C38.8335 11.2593 31.9545 4.38037 23.5001 4.38037C15.0457 4.38037 8.16679 11.2593 8.16679 19.7041C8.11121 32.057 21.8058 41.9451 22.3885 42.3572ZM23.5001 8.2137C29.8424 8.2137 35.0001 13.3715 35.0001 19.7233C35.0404 28.2295 26.5898 35.8674 23.5001 38.3725C20.4124 35.8655 11.9599 28.2256 12.0001 19.7137C12.0001 13.3715 17.1579 8.2137 23.5001 8.2137Z" fill="white"/>
</g>
</g>
</g>
</g>
</g>
</g>
<defs>
<clipPath id="clip0_0_3517">
<rect width="1579" height="7088.55" fill="white" transform="translate(-1036 -6738)"/>
</clipPath>
<clipPath id="clip1_0_3517">
<rect width="930" height="243" fill="white" transform="translate(-711.5 0.546875)"/>
</clipPath>
<clipPath id="clip2_0_3517">
<rect width="218" height="190.987" fill="white" transform="translate(0.5 0.546875)"/>
</clipPath>
<clipPath id="clip3_0_3517">
<rect width="218" height="46" fill="white" transform="translate(0.5 0.546875)"/>
</clipPath>
</defs>
</svg>
