<svg width="36" height="36" viewBox="0 0 36 36" fill="none" xmlns="http://www.w3.org/2000/svg">
<rect width="36" height="36" fill="#E5E5E5"/>
<g id="Desktop" clip-path="url(#clip0_0_3517)">
<rect width="1579" height="7088.55" transform="translate(-1036 -6799)" fill="#181818"/>
<g id="light FOOTER 4">
<rect width="1579" height="457" transform="translate(-1036 -167.453)" fill="#181818"/>
<g id="content" clip-path="url(#clip1_0_3517)">
<g id="row" clip-path="url(#clip2_0_3517)">
<g id="block" clip-path="url(#clip3_0_3517)">
<g id="ic:baseline-phone-android">
<path id="Vector" d="M23.8333 1.50537H12.1666C9.74579 1.50537 7.79163 3.45954 7.79163 5.88037V29.2137C7.79163 31.6345 9.74579 33.5887 12.1666 33.5887H23.8333C26.2541 33.5887 28.2083 31.6345 28.2083 29.2137V5.88037C28.2083 3.45954 26.2541 1.50537 23.8333 1.50537ZM20.9166 30.672H15.0833V29.2137H20.9166V30.672ZM25.6562 26.297H10.3437V5.88037H25.6562V26.297Z" fill="white"/>
</g>
</g>
</g>
</g>
</g>
</g>
<defs>
<clipPath id="clip0_0_3517">
<rect width="1579" height="7088.55" fill="white" transform="translate(-1036 -6799)"/>
</clipPath>
<clipPath id="clip1_0_3517">
<rect width="930" height="243" fill="white" transform="translate(-711.5 -60.4531)"/>
</clipPath>
<clipPath id="clip2_0_3517">
<rect width="218" height="190.987" fill="white" transform="translate(0.5 -60.4531)"/>
</clipPath>
<clipPath id="clip3_0_3517">
<rect width="195" height="44" fill="white" transform="translate(0.5 -4.45312)"/>
</clipPath>
</defs>
</svg>
