<svg width="42" height="20" viewBox="0 0 42 20" fill="none" xmlns="http://www.w3.org/2000/svg">
<rect width="42" height="20" fill="#E5E5E5"/>
<g id="Desktop" clip-path="url(#clip0_0_3517)">
<rect width="1579" height="7088.55" transform="translate(-1044 -2579)" fill="#181818"/>
<g id="dark FEATURE 5">
<rect width="1579" height="1112" transform="translate(-1044 -804)" fill="#181818"/>
<g id="content">
<g id="Frame 20" clip-path="url(#clip1_0_3517)">
<g id="content rows">
<g id="Text Block" clip-path="url(#clip2_0_3517)">
<g id="HEADLINE" clip-path="url(#clip3_0_3517)">
<g id="mdi:all-inclusive" clip-path="url(#clip4_0_3517)">
<path id="Vector" d="M32.275 0.83256C29.815 0.83256 27.4917 1.8214 25.8346 3.53423L13.825 14.5528C12.7317 15.6829 11.2796 16.3009 9.725 16.3009C6.53042 16.3009 3.91667 13.6346 3.91667 10.3325C3.91667 7.0305 6.53042 4.36415 9.725 4.36415C11.2796 4.36415 12.7317 4.98218 13.8933 6.18292L15.8238 7.94872L18.4375 5.58255L16.2508 3.62252C15.3953 2.7349 14.3782 2.03133 13.2581 1.55246C12.1379 1.07358 10.9371 0.828905 9.725 0.83256C4.63417 0.83256 0.5 5.10579 0.5 10.3325C0.5 15.5593 4.63417 19.8325 9.725 19.8325C12.185 19.8325 14.5083 18.8437 16.1654 17.1309L28.175 6.11229C29.2683 4.98218 30.7204 4.36415 32.275 4.36415C35.4696 4.36415 38.0833 7.0305 38.0833 10.3325C38.0833 13.6346 35.4696 16.3009 32.275 16.3009C30.7375 16.3009 29.2683 15.6829 28.1067 14.4822L26.125 12.6987L23.5625 15.0649L25.7492 17.0426C26.607 17.9257 27.625 18.6252 28.7448 19.1009C29.8646 19.5767 31.0643 19.8193 32.275 19.8149C37.3658 19.8149 41.5 15.5593 41.5 10.3325C41.5 5.03515 37.3658 0.83256 32.275 0.83256Z" fill="#02E4C0"/>
</g>
</g>
</g>
</g>
</g>
</g>
</g>
</g>
<defs>
<clipPath id="clip0_0_3517">
<rect width="1579" height="7088.55" fill="white" transform="translate(-1044 -2579)"/>
</clipPath>
<clipPath id="clip1_0_3517">
<rect width="1088" height="759" fill="white" transform="translate(-798.5 -513)"/>
</clipPath>
<clipPath id="clip2_0_3517">
<rect width="269" height="145" fill="white" transform="translate(0.5 -16.1675)"/>
</clipPath>
<clipPath id="clip3_0_3517">
<rect width="219" height="53" fill="white" transform="translate(0.5 -16.1675)"/>
</clipPath>
<clipPath id="clip4_0_3517">
<rect width="41" height="53" fill="white" transform="translate(0.5 -16.1675)"/>
</clipPath>
</defs>
</svg>
